# Blender 3.4.1
# www.blender.org
mtllib my_hour.mtl
o Hour
v 7.000735 2.804553 -2.433547
v 7.000165 2.805044 -2.433408
v 6.999617 2.805517 -2.432997
v 6.999111 2.805953 -2.432329
v 6.998668 2.806335 -2.431430
v 6.998304 2.806648 -2.430335
v 6.998034 2.806881 -2.429086
v 6.997868 2.807024 -2.427730
v 6.997811 2.807073 -2.426320
v 6.997868 2.807024 -2.424910
v 6.998034 2.806881 -2.423554
v 6.998304 2.806648 -2.422305
v 6.998668 2.806335 -2.421209
v 6.999111 2.805953 -2.420310
v 6.999617 2.805517 -2.419643
v 7.000165 2.805044 -2.419231
v 7.000735 2.804553 -2.419093
v 7.001306 2.804061 -2.419231
v 7.001854 2.803588 -2.419643
v 7.002360 2.803153 -2.420310
v 7.002803 2.802770 -2.421209
v 7.003167 2.802457 -2.422305
v 7.003437 2.802224 -2.423554
v 7.003603 2.802081 -2.424910
v 7.003660 2.802032 -2.426320
v 7.003603 2.802081 -2.427730
v 7.003437 2.802224 -2.429086
v 7.003167 2.802457 -2.430335
v 7.002803 2.802770 -2.431430
v 7.002360 2.803153 -2.432329
v 7.001854 2.803588 -2.432997
v 7.001306 2.804061 -2.433408
v 7.095757 2.914792 -2.427797
v 7.058139 2.871149 -2.433547
v 7.095641 2.914893 -2.427768
v 7.057569 2.871641 -2.433408
v 7.095529 2.914989 -2.427684
v 7.057020 2.872114 -2.432997
v 7.095425 2.915078 -2.427548
v 7.056514 2.872550 -2.432329
v 7.095335 2.915157 -2.427364
v 7.056071 2.872932 -2.431430
v 7.095260 2.915221 -2.427140
v 7.055707 2.873245 -2.430335
v 7.095205 2.915268 -2.426885
v 7.055438 2.873478 -2.429086
v 7.095171 2.915298 -2.426608
v 7.055271 2.873621 -2.427730
v 7.095160 2.915308 -2.426320
v 7.055215 2.873670 -2.426320
v 7.095171 2.915298 -2.426032
v 7.055271 2.873621 -2.424910
v 7.095205 2.915268 -2.425755
v 7.055438 2.873478 -2.423554
v 7.095260 2.915221 -2.425499
v 7.055707 2.873245 -2.422305
v 7.095335 2.915157 -2.425275
v 7.056071 2.872932 -2.421209
v 7.095425 2.915078 -2.425092
v 7.056514 2.872550 -2.420310
v 7.095529 2.914989 -2.424955
v 7.057020 2.872114 -2.419643
v 7.095641 2.914893 -2.424871
v 7.057569 2.871641 -2.419231
v 7.095757 2.914792 -2.424843
v 7.058139 2.871149 -2.419093
v 7.095874 2.914692 -2.424871
v 7.058709 2.870658 -2.419231
v 7.095986 2.914595 -2.424955
v 7.059258 2.870185 -2.419643
v 7.096089 2.914506 -2.425092
v 7.059763 2.869749 -2.420310
v 7.096180 2.914428 -2.425275
v 7.060206 2.869367 -2.421209
v 7.096254 2.914364 -2.425499
v 7.060570 2.869054 -2.422305
v 7.096309 2.914316 -2.425755
v 7.060840 2.868821 -2.423554
v 7.096344 2.914287 -2.426032
v 7.061007 2.868677 -2.424910
v 7.096355 2.914277 -2.426320
v 7.061063 2.868629 -2.426320
v 7.096344 2.914287 -2.426608
v 7.061007 2.868677 -2.427730
v 7.096309 2.914316 -2.426885
v 7.060840 2.868821 -2.429086
v 7.096254 2.914364 -2.427140
v 7.060570 2.869054 -2.430335
v 7.096180 2.914428 -2.427364
v 7.060206 2.869367 -2.431430
v 7.096089 2.914506 -2.427548
v 7.059763 2.869749 -2.432329
v 7.095986 2.914595 -2.427684
v 7.059258 2.870185 -2.432997
v 7.095874 2.914692 -2.427768
v 7.058709 2.870658 -2.433408
vn 0.1374 -0.1185 -0.9834
vn -0.5358 0.4619 -0.7068
vn -0.6347 0.5471 -0.5457
vn -0.6937 0.5979 -0.4017
vn -0.7284 0.6278 -0.2745
vn -0.7477 0.6445 -0.1600
vn -0.7564 0.6520 -0.0525
vn -0.7564 0.6520 0.0525
vn -0.7477 0.6445 0.1600
vn -0.7284 0.6278 0.2745
vn -0.6938 0.5980 0.4013
vn -0.6347 0.5471 0.5457
vn -0.5357 0.4618 0.7070
vn -0.3741 0.3225 0.8695
vn -0.1374 0.1184 0.9834
vn 0.1374 -0.1185 0.9834
vn 0.3740 -0.3224 0.8696
vn 0.5358 -0.4619 0.7068
vn 0.6347 -0.5471 0.5457
vn 0.6938 -0.5980 0.4013
vn 0.7284 -0.6278 0.2745
vn 0.7477 -0.6445 0.1602
vn 0.7564 -0.6520 0.0525
vn 0.7564 -0.6520 -0.0525
vn 0.7477 -0.6445 -0.1602
vn 0.7284 -0.6278 -0.2745
vn 0.6937 -0.5979 -0.4017
vn 0.6347 -0.5471 -0.5457
vn 0.5360 -0.4620 -0.7066
vn 0.3738 -0.3222 -0.8697
vn -0.1374 0.1184 -0.9834
vn -0.3739 0.3223 -0.8696
vn -0.6529 -0.7575 -0.0000
vn -0.0728 0.1917 -0.9787
vn -0.3139 0.3892 -0.8660
vn -0.4823 0.5205 -0.7046
vn -0.5875 0.5987 -0.5444
vn -0.6514 0.6443 -0.4006
vn -0.6895 0.6705 -0.2739
vn -0.7109 0.6849 -0.1597
vn -0.7206 0.6913 -0.0525
vn -0.7206 0.6913 0.0525
vn -0.7109 0.6849 0.1597
vn -0.6895 0.6705 0.2739
vn -0.6514 0.6443 0.4006
vn -0.5875 0.5987 0.5443
vn -0.4822 0.5204 0.7047
vn -0.3140 0.3893 0.8659
vn -0.0729 0.1918 0.9787
vn 0.2005 -0.0439 0.9787
vn 0.4313 -0.2531 0.8660
vn 0.5859 -0.4003 0.7046
vn 0.6788 -0.4928 0.5445
vn 0.7334 -0.5494 0.4004
vn 0.7649 -0.5830 0.2739
vn 0.7822 -0.6021 0.1600
vn 0.7900 -0.6108 0.0525
vn 0.7900 -0.6108 -0.0525
vn 0.7822 -0.6021 -0.1600
vn 0.7649 -0.5831 -0.2739
vn 0.7334 -0.5493 -0.4005
vn 0.6788 -0.4927 -0.5445
vn 0.5860 -0.4004 -0.7045
vn 0.4312 -0.2530 -0.8661
vn 0.2005 -0.0438 -0.9787
vn 0.6529 0.7575 -0.0000
vt 0.000000 0.500000
vt 1.000000 0.500000
vt 0.750000 0.490000
vt 0.968750 0.500000
vt 0.796822 0.485388
vt 0.937500 0.500000
vt 0.841844 0.471731
vt 0.906250 0.500000
vt 0.883337 0.449553
vt 0.875000 0.500000
vt 0.919706 0.419706
vt 0.843750 0.500000
vt 0.949553 0.383337
vt 0.812500 0.500000
vt 0.971731 0.341844
vt 0.781250 0.500000
vt 0.985388 0.296822
vt 0.750000 0.500000
vt 0.990000 0.250000
vt 0.718750 0.500000
vt 0.985388 0.203178
vt 0.687500 0.500000
vt 0.971731 0.158156
vt 0.656250 0.500000
vt 0.949553 0.116663
vt 0.625000 0.500000
vt 0.919706 0.080294
vt 0.593750 0.500000
vt 0.883337 0.050447
vt 0.562500 0.500000
vt 0.841844 0.028269
vt 0.531250 0.500000
vt 0.796822 0.014612
vt 0.500000 0.500000
vt 0.750000 0.010000
vt 0.468750 0.500000
vt 0.703178 0.014612
vt 0.437500 0.500000
vt 0.658156 0.028269
vt 0.406250 0.500000
vt 0.616663 0.050447
vt 0.375000 0.500000
vt 0.580294 0.080294
vt 0.343750 0.500000
vt 0.550447 0.116663
vt 0.312500 0.500000
vt 0.528269 0.158156
vt 0.281250 0.500000
vt 0.514612 0.203178
vt 0.250000 0.500000
vt 0.510000 0.250000
vt 0.218750 0.500000
vt 0.514612 0.296822
vt 0.187500 0.500000
vt 0.528269 0.341844
vt 0.156250 0.500000
vt 0.550447 0.383337
vt 0.125000 0.500000
vt 0.580294 0.419706
vt 0.093750 0.500000
vt 0.616663 0.449553
vt 0.062500 0.500000
vt 0.658156 0.471731
vt 0.031250 0.500000
vt 0.703178 0.485388
vt 0.250000 0.299052
vt 0.000000 0.802053
vt 1.000000 0.802053
vt 0.250000 0.490000
vt 0.259569 0.298109
vt 0.968750 0.802053
vt 0.296822 0.485388
vt 0.268771 0.295318
vt 0.937500 0.802053
vt 0.341844 0.471731
vt 0.277252 0.290785
vt 0.906250 0.802053
vt 0.383337 0.449553
vt 0.284685 0.284685
vt 0.875000 0.802053
vt 0.419706 0.419706
vt 0.290785 0.277252
vt 0.843750 0.802053
vt 0.449553 0.383337
vt 0.295318 0.268771
vt 0.812500 0.802053
vt 0.471731 0.341844
vt 0.298109 0.259569
vt 0.781250 0.802053
vt 0.485388 0.296822
vt 0.299052 0.250000
vt 0.750000 0.802053
vt 0.490000 0.250000
vt 0.298109 0.240431
vt 0.718750 0.802053
vt 0.485388 0.203178
vt 0.295318 0.231229
vt 0.687500 0.802053
vt 0.471731 0.158156
vt 0.290785 0.222748
vt 0.656250 0.802053
vt 0.449553 0.116663
vt 0.284685 0.215315
vt 0.625000 0.802053
vt 0.419706 0.080294
vt 0.277252 0.209215
vt 0.593750 0.802053
vt 0.383337 0.050447
vt 0.268771 0.204682
vt 0.562500 0.802053
vt 0.341844 0.028269
vt 0.259569 0.201891
vt 0.531250 0.802053
vt 0.296822 0.014612
vt 0.250000 0.200948
vt 0.500000 0.802053
vt 0.250000 0.010000
vt 0.240431 0.201891
vt 0.468750 0.802053
vt 0.203178 0.014612
vt 0.231229 0.204682
vt 0.437500 0.802053
vt 0.158156 0.028269
vt 0.222748 0.209215
vt 0.406250 0.802053
vt 0.116663 0.050447
vt 0.215315 0.215315
vt 0.375000 0.802053
vt 0.080294 0.080294
vt 0.209215 0.222748
vt 0.343750 0.802053
vt 0.050447 0.116663
vt 0.204682 0.231229
vt 0.312500 0.802053
vt 0.028269 0.158156
vt 0.201891 0.240431
vt 0.281250 0.802053
vt 0.014612 0.203178
vt 0.200948 0.250000
vt 0.250000 0.802053
vt 0.010000 0.250000
vt 0.201891 0.259569
vt 0.218750 0.802053
vt 0.014612 0.296822
vt 0.204682 0.268771
vt 0.187500 0.802053
vt 0.028269 0.341844
vt 0.209215 0.277252
vt 0.156250 0.802053
vt 0.050447 0.383337
vt 0.215315 0.284685
vt 0.125000 0.802053
vt 0.080294 0.419706
vt 0.222748 0.290785
vt 0.093750 0.802053
vt 0.116663 0.449553
vt 0.231229 0.295318
vt 0.062500 0.802053
vt 0.158156 0.471731
vt 0.240431 0.298109
vt 0.031250 0.802053
vt 0.203178 0.485388
s 0
usemtl Material.018
f 32/64/1 1/1/1 34/67/1 96/161/1
f 3/6/2 4/8/2 40/77/2 38/74/2
f 4/8/3 5/10/3 42/80/3 40/77/3
f 5/10/4 6/12/4 44/83/4 42/80/4
f 6/12/5 7/14/5 46/86/5 44/83/5
f 7/14/6 8/16/6 48/89/6 46/86/6
f 8/16/7 9/18/7 50/92/7 48/89/7
f 9/18/8 10/20/8 52/95/8 50/92/8
f 10/20/9 11/22/9 54/98/9 52/95/9
f 11/22/10 12/24/10 56/101/10 54/98/10
f 12/24/11 13/26/11 58/104/11 56/101/11
f 13/26/12 14/28/12 60/107/12 58/104/12
f 14/28/13 15/30/13 62/110/13 60/107/13
f 15/30/14 16/32/14 64/113/14 62/110/14
f 16/32/15 17/34/15 66/116/15 64/113/15
f 17/34/16 18/36/16 68/119/16 66/116/16
f 18/36/17 19/38/17 70/122/17 68/119/17
f 19/38/18 20/40/18 72/125/18 70/122/18
f 20/40/19 21/42/19 74/128/19 72/125/19
f 21/42/20 22/44/20 76/131/20 74/128/20
f 22/44/21 23/46/21 78/134/21 76/131/21
f 23/46/22 24/48/22 80/137/22 78/134/22
f 24/48/23 25/50/23 82/140/23 80/137/23
f 25/50/24 26/52/24 84/143/24 82/140/24
f 26/52/25 27/54/25 86/146/25 84/143/25
f 27/54/26 28/56/26 88/149/26 86/146/26
f 28/56/27 29/58/27 90/152/27 88/149/27
f 29/58/28 30/60/28 92/155/28 90/152/28
f 30/60/29 31/62/29 94/158/29 92/155/29
f 31/62/30 32/64/30 96/161/30 94/158/30
f 1/2/31 2/4/31 36/71/31 34/68/31
f 2/4/32 3/6/32 38/74/32 36/71/32
f 1/3/33 32/65/33 31/63/33 30/61/33 29/59/33 28/57/33 27/55/33 26/53/33 25/51/33 24/49/33 23/47/33 22/45/33 21/43/33 20/41/33 19/39/33 18/37/33 17/35/33 16/33/33 15/31/33 14/29/33 13/27/33 12/25/33 11/23/33 10/21/33 9/19/33 8/17/33 7/15/33 6/13/33 5/11/33 4/9/33 3/7/33 2/5/33
f 36/72/34 35/70/34 33/66/34 34/69/34
f 38/75/35 37/73/35 35/70/35 36/72/35
f 40/78/36 39/76/36 37/73/36 38/75/36
f 42/81/37 41/79/37 39/76/37 40/78/37
f 44/84/38 43/82/38 41/79/38 42/81/38
f 46/87/39 45/85/39 43/82/39 44/84/39
f 48/90/40 47/88/40 45/85/40 46/87/40
f 50/93/41 49/91/41 47/88/41 48/90/41
f 52/96/42 51/94/42 49/91/42 50/93/42
f 54/99/43 53/97/43 51/94/43 52/96/43
f 56/102/44 55/100/44 53/97/44 54/99/44
f 58/105/45 57/103/45 55/100/45 56/102/45
f 60/108/46 59/106/46 57/103/46 58/105/46
f 62/111/47 61/109/47 59/106/47 60/108/47
f 64/114/48 63/112/48 61/109/48 62/111/48
f 66/117/49 65/115/49 63/112/49 64/114/49
f 68/120/50 67/118/50 65/115/50 66/117/50
f 70/123/51 69/121/51 67/118/51 68/120/51
f 72/126/52 71/124/52 69/121/52 70/123/52
f 74/129/53 73/127/53 71/124/53 72/126/53
f 76/132/54 75/130/54 73/127/54 74/129/54
f 78/135/55 77/133/55 75/130/55 76/132/55
f 80/138/56 79/136/56 77/133/56 78/135/56
f 82/141/57 81/139/57 79/136/57 80/138/57
f 84/144/58 83/142/58 81/139/58 82/141/58
f 86/147/59 85/145/59 83/142/59 84/144/59
f 88/150/60 87/148/60 85/145/60 86/147/60
f 90/153/61 89/151/61 87/148/61 88/150/61
f 92/156/62 91/154/62 89/151/62 90/153/62
f 94/159/63 93/157/63 91/154/63 92/156/63
f 96/162/64 95/160/64 93/157/64 94/159/64
f 34/69/65 33/66/65 95/160/65 96/162/65
f 35/70/66 37/73/66 39/76/66 41/79/66 43/82/66 45/85/66 47/88/66 49/91/66 51/94/66 53/97/66 55/100/66 57/103/66 59/106/66 61/109/66 63/112/66 65/115/66 67/118/66 69/121/66 71/124/66 73/127/66 75/130/66 77/133/66 79/136/66 81/139/66 83/142/66 85/145/66 87/148/66 89/151/66 91/154/66 93/157/66 95/160/66 33/66/66
