# Blender 3.4.1
# www.blender.org
mtllib my_sec.mtl
o Sec
v 7.001724 2.804573 -2.413558
v 7.001895 2.804857 -2.413480
v 7.002049 2.805128 -2.413280
v 7.002182 2.805377 -2.412969
v 7.002286 2.805594 -2.412556
v 7.002359 2.805771 -2.412059
v 7.002398 2.805900 -2.411496
v 7.002400 2.805977 -2.410889
v 7.002367 2.805998 -2.410261
v 7.002298 2.805964 -2.409636
v 7.002198 2.805875 -2.409039
v 7.002070 2.805734 -2.408492
v 7.001918 2.805548 -2.408017
v 7.001750 2.805323 -2.407631
v 7.001569 2.805068 -2.407350
v 7.001385 2.804792 -2.407183
v 7.001204 2.804507 -2.407139
v 7.001033 2.804223 -2.407218
v 7.000878 2.803952 -2.407417
v 7.000747 2.803703 -2.407729
v 7.000642 2.803486 -2.408141
v 7.000569 2.803309 -2.408638
v 7.000531 2.803180 -2.409202
v 7.000528 2.803103 -2.409809
v 7.000561 2.803082 -2.410437
v 7.000629 2.803116 -2.411061
v 7.000730 2.803205 -2.411658
v 7.000858 2.803346 -2.412205
v 7.001009 2.803532 -2.412680
v 7.001179 2.803757 -2.413066
v 7.001359 2.804012 -2.413348
v 7.001543 2.804288 -2.413514
v 6.788479 2.937359 -2.426896
v 6.873026 2.884806 -2.423158
v 6.788514 2.937417 -2.426880
v 6.873197 2.885090 -2.423079
v 6.788545 2.937473 -2.426839
v 6.873352 2.885361 -2.422880
v 6.788572 2.937524 -2.426775
v 6.873484 2.885611 -2.422568
v 6.788594 2.937568 -2.426691
v 6.873588 2.885827 -2.422156
v 6.788609 2.937604 -2.426589
v 6.873661 2.886004 -2.421659
v 6.788617 2.937630 -2.426474
v 6.873699 2.886133 -2.421096
v 6.788617 2.937646 -2.426350
v 6.873702 2.886210 -2.420489
v 6.788610 2.937651 -2.426222
v 6.873669 2.886231 -2.419861
v 6.788596 2.937643 -2.426094
v 6.873601 2.886197 -2.419236
v 6.788576 2.937625 -2.425972
v 6.873501 2.886108 -2.418639
v 6.788550 2.937597 -2.425860
v 6.873372 2.885967 -2.418092
v 6.788518 2.937558 -2.425763
v 6.873220 2.885781 -2.417617
v 6.788484 2.937513 -2.425684
v 6.873052 2.885556 -2.417231
v 6.788447 2.937460 -2.425627
v 6.872871 2.885301 -2.416950
v 6.788409 2.937404 -2.425593
v 6.872687 2.885025 -2.416784
v 6.788373 2.937346 -2.425584
v 6.872507 2.884740 -2.416739
v 6.788338 2.937288 -2.425600
v 6.872335 2.884456 -2.416818
v 6.788306 2.937232 -2.425641
v 6.872181 2.884185 -2.417017
v 6.788279 2.937181 -2.425704
v 6.872049 2.883936 -2.417329
v 6.788258 2.937137 -2.425788
v 6.871944 2.883719 -2.417741
v 6.788243 2.937101 -2.425890
v 6.871871 2.883542 -2.418239
v 6.788235 2.937075 -2.426005
v 6.871833 2.883413 -2.418802
v 6.788235 2.937059 -2.426130
v 6.871830 2.883336 -2.419409
v 6.788241 2.937054 -2.426258
v 6.871863 2.883315 -2.420037
v 6.788255 2.937062 -2.426385
v 6.871932 2.883349 -2.420661
v 6.788276 2.937080 -2.426507
v 6.872032 2.883438 -2.421258
v 6.788301 2.937109 -2.426619
v 6.872160 2.883579 -2.421805
v 6.788333 2.937146 -2.426716
v 6.872312 2.883765 -2.422280
v 6.788367 2.937193 -2.426795
v 6.872481 2.883990 -2.422666
v 6.788404 2.937245 -2.426853
v 6.872661 2.884245 -2.422948
v 6.788442 2.937301 -2.426887
v 6.872845 2.884521 -2.423114
vn -0.0159 -0.1439 -0.9895
vn 0.4290 0.6083 -0.6678
vn 0.4847 0.7176 -0.5001
vn 0.5138 0.7820 -0.3528
vn 0.5276 0.8195 -0.2238
vn 0.5317 0.8399 -0.1086
vn 0.5291 0.8486 -0.0011
vn 0.5206 0.8475 0.1034
vn 0.5059 0.8366 0.2100
vn 0.4834 0.8139 0.3223
vn 0.4491 0.7738 0.4466
vn 0.3967 0.7065 0.5861
vn 0.3151 0.5941 0.7401
vn 0.1898 0.4112 0.8916
vn 0.0161 0.1442 0.9894
vn -0.1749 -0.1644 0.9708
vn -0.3301 -0.4289 0.8409
vn -0.4291 -0.6084 0.6677
vn -0.4847 -0.7176 0.5001
vn -0.5138 -0.7820 0.3528
vn -0.5276 -0.8195 0.2237
vn -0.5317 -0.8399 0.1088
vn -0.5291 -0.8486 0.0009
vn -0.5207 -0.8475 -0.1032
vn -0.5059 -0.8366 -0.2099
vn -0.4834 -0.8139 -0.3223
vn -0.4491 -0.7738 -0.4467
vn -0.3967 -0.7065 -0.5861
vn -0.3151 -0.5940 -0.7402
vn -0.1898 -0.4112 -0.8915
vn 0.1747 0.1641 -0.9708
vn 0.3301 0.4289 -0.8409
vn 0.8469 -0.5280 0.0632
vn 0.1533 0.1775 -0.9721
vn 0.3102 0.4408 -0.8423
vn 0.4116 0.6190 -0.6689
vn 0.4694 0.7272 -0.5007
vn 0.5000 0.7904 -0.3540
vn 0.5149 0.8273 -0.2247
vn 0.5197 0.8473 -0.1095
vn 0.5175 0.8557 -0.0022
vn 0.5090 0.8546 0.1028
vn 0.4940 0.8440 0.2089
vn 0.4707 0.8217 0.3213
vn 0.4354 0.7823 0.4455
vn 0.3815 0.7161 0.5845
vn 0.2977 0.6047 0.7387
vn 0.1700 0.4232 0.8900
vn -0.0052 0.1577 0.9875
vn -0.1963 -0.1511 0.9688
vn -0.3496 -0.4164 0.8393
vn -0.4462 -0.5972 0.6665
vn -0.4998 -0.7079 0.4991
vn -0.5275 -0.7734 0.3517
vn -0.5401 -0.8116 0.2228
vn -0.5436 -0.8324 0.1076
vn -0.5407 -0.8412 0.0006
vn -0.5322 -0.8402 -0.1046
vn -0.5178 -0.8292 -0.2105
vn -0.4959 -0.8060 -0.3232
vn -0.4627 -0.7652 -0.4475
vn -0.4120 -0.6969 -0.5871
vn -0.3325 -0.5832 -0.7412
vn -0.2094 -0.3987 -0.8929
vn -0.0374 -0.1306 -0.9907
vn -0.8469 0.5280 -0.0631
vt 0.000000 0.500000
vt 1.000000 0.500000
vt 0.750000 0.490000
vt 0.968750 0.500000
vt 0.796822 0.485388
vt 0.937500 0.500000
vt 0.841844 0.471731
vt 0.906250 0.500000
vt 0.883337 0.449553
vt 0.875000 0.500000
vt 0.919706 0.419706
vt 0.843750 0.500000
vt 0.949553 0.383337
vt 0.812500 0.500000
vt 0.971731 0.341844
vt 0.781250 0.500000
vt 0.985388 0.296822
vt 0.750000 0.500000
vt 0.990000 0.250000
vt 0.718750 0.500000
vt 0.985388 0.203178
vt 0.687500 0.500000
vt 0.971731 0.158156
vt 0.656250 0.500000
vt 0.949553 0.116663
vt 0.625000 0.500000
vt 0.919706 0.080294
vt 0.593750 0.500000
vt 0.883337 0.050447
vt 0.562500 0.500000
vt 0.841844 0.028269
vt 0.531250 0.500000
vt 0.796822 0.014612
vt 0.500000 0.500000
vt 0.750000 0.010000
vt 0.468750 0.500000
vt 0.703178 0.014612
vt 0.437500 0.500000
vt 0.658156 0.028269
vt 0.406250 0.500000
vt 0.616663 0.050447
vt 0.375000 0.500000
vt 0.580294 0.080294
vt 0.343750 0.500000
vt 0.550447 0.116663
vt 0.312500 0.500000
vt 0.528269 0.158156
vt 0.281250 0.500000
vt 0.514612 0.203178
vt 0.250000 0.500000
vt 0.510000 0.250000
vt 0.218750 0.500000
vt 0.514612 0.296822
vt 0.187500 0.500000
vt 0.528269 0.341844
vt 0.156250 0.500000
vt 0.550447 0.383337
vt 0.125000 0.500000
vt 0.580294 0.419706
vt 0.093750 0.500000
vt 0.616663 0.449553
vt 0.062500 0.500000
vt 0.658156 0.471731
vt 0.031250 0.500000
vt 0.703178 0.485388
vt 0.250000 0.299052
vt 0.000000 0.802053
vt 1.000000 0.802053
vt 0.250000 0.490000
vt 0.259569 0.298109
vt 0.968750 0.802053
vt 0.296822 0.485388
vt 0.268771 0.295318
vt 0.937500 0.802053
vt 0.341844 0.471731
vt 0.277252 0.290785
vt 0.906250 0.802053
vt 0.383337 0.449553
vt 0.284685 0.284685
vt 0.875000 0.802053
vt 0.419706 0.419706
vt 0.290785 0.277252
vt 0.843750 0.802053
vt 0.449553 0.383337
vt 0.295318 0.268771
vt 0.812500 0.802053
vt 0.471731 0.341844
vt 0.298109 0.259569
vt 0.781250 0.802053
vt 0.485388 0.296822
vt 0.299052 0.250000
vt 0.750000 0.802053
vt 0.490000 0.250000
vt 0.298109 0.240431
vt 0.718750 0.802053
vt 0.485388 0.203178
vt 0.295318 0.231229
vt 0.687500 0.802053
vt 0.471731 0.158156
vt 0.290785 0.222748
vt 0.656250 0.802053
vt 0.449553 0.116663
vt 0.284685 0.215315
vt 0.625000 0.802053
vt 0.419706 0.080294
vt 0.277252 0.209215
vt 0.593750 0.802053
vt 0.383337 0.050447
vt 0.268771 0.204682
vt 0.562500 0.802053
vt 0.341844 0.028269
vt 0.259569 0.201891
vt 0.531250 0.802053
vt 0.296822 0.014612
vt 0.250000 0.200948
vt 0.500000 0.802053
vt 0.250000 0.010000
vt 0.240431 0.201891
vt 0.468750 0.802053
vt 0.203178 0.014612
vt 0.231229 0.204682
vt 0.437500 0.802053
vt 0.158156 0.028269
vt 0.222748 0.209215
vt 0.406250 0.802053
vt 0.116663 0.050447
vt 0.215315 0.215315
vt 0.375000 0.802053
vt 0.080294 0.080294
vt 0.209215 0.222748
vt 0.343750 0.802053
vt 0.050447 0.116663
vt 0.204682 0.231229
vt 0.312500 0.802053
vt 0.028269 0.158156
vt 0.201891 0.240431
vt 0.281250 0.802053
vt 0.014612 0.203178
vt 0.200948 0.250000
vt 0.250000 0.802053
vt 0.010000 0.250000
vt 0.201891 0.259569
vt 0.218750 0.802053
vt 0.014612 0.296822
vt 0.204682 0.268771
vt 0.187500 0.802053
vt 0.028269 0.341844
vt 0.209215 0.277252
vt 0.156250 0.802053
vt 0.050447 0.383337
vt 0.215315 0.284685
vt 0.125000 0.802053
vt 0.080294 0.419706
vt 0.222748 0.290785
vt 0.093750 0.802053
vt 0.116663 0.449553
vt 0.231229 0.295318
vt 0.062500 0.802053
vt 0.158156 0.471731
vt 0.240431 0.298109
vt 0.031250 0.802053
vt 0.203178 0.485388
s 0
usemtl Material.020
f 32/64/1 96/161/1 34/67/1 1/1/1
f 3/6/2 38/74/2 40/77/2 4/8/2
f 4/8/3 40/77/3 42/80/3 5/10/3
f 5/10/4 42/80/4 44/83/4 6/12/4
f 6/12/5 44/83/5 46/86/5 7/14/5
f 7/14/6 46/86/6 48/89/6 8/16/6
f 8/16/7 48/89/7 50/92/7 9/18/7
f 9/18/8 50/92/8 52/95/8 10/20/8
f 10/20/9 52/95/9 54/98/9 11/22/9
f 11/22/10 54/98/10 56/101/10 12/24/10
f 12/24/11 56/101/11 58/104/11 13/26/11
f 13/26/12 58/104/12 60/107/12 14/28/12
f 14/28/13 60/107/13 62/110/13 15/30/13
f 15/30/14 62/110/14 64/113/14 16/32/14
f 16/32/15 64/113/15 66/116/15 17/34/15
f 17/34/16 66/116/16 68/119/16 18/36/16
f 18/36/17 68/119/17 70/122/17 19/38/17
f 19/38/18 70/122/18 72/125/18 20/40/18
f 20/40/19 72/125/19 74/128/19 21/42/19
f 21/42/20 74/128/20 76/131/20 22/44/20
f 22/44/21 76/131/21 78/134/21 23/46/21
f 23/46/22 78/134/22 80/137/22 24/48/22
f 24/48/23 80/137/23 82/140/23 25/50/23
f 25/50/24 82/140/24 84/143/24 26/52/24
f 26/52/25 84/143/25 86/146/25 27/54/25
f 27/54/26 86/146/26 88/149/26 28/56/26
f 28/56/27 88/149/27 90/152/27 29/58/27
f 29/58/28 90/152/28 92/155/28 30/60/28
f 30/60/29 92/155/29 94/158/29 31/62/29
f 31/62/30 94/158/30 96/161/30 32/64/30
f 1/2/31 34/68/31 36/71/31 2/4/31
f 2/4/32 36/71/32 38/74/32 3/6/32
f 1/3/33 2/5/33 3/7/33 4/9/33 5/11/33 6/13/33 7/15/33 8/17/33 9/19/33 10/21/33 11/23/33 12/25/33 13/27/33 14/29/33 15/31/33 16/33/33 17/35/33 18/37/33 19/39/33 20/41/33 21/43/33 22/45/33 23/47/33 24/49/33 25/51/33 26/53/33 27/55/33 28/57/33 29/59/33 30/61/33 31/63/33 32/65/33
f 36/72/34 34/69/34 33/66/34 35/70/34
f 38/75/35 36/72/35 35/70/35 37/73/35
f 40/78/36 38/75/36 37/73/36 39/76/36
f 42/81/37 40/78/37 39/76/37 41/79/37
f 44/84/38 42/81/38 41/79/38 43/82/38
f 46/87/39 44/84/39 43/82/39 45/85/39
f 48/90/40 46/87/40 45/85/40 47/88/40
f 50/93/41 48/90/41 47/88/41 49/91/41
f 52/96/42 50/93/42 49/91/42 51/94/42
f 54/99/43 52/96/43 51/94/43 53/97/43
f 56/102/44 54/99/44 53/97/44 55/100/44
f 58/105/45 56/102/45 55/100/45 57/103/45
f 60/108/46 58/105/46 57/103/46 59/106/46
f 62/111/47 60/108/47 59/106/47 61/109/47
f 64/114/48 62/111/48 61/109/48 63/112/48
f 66/117/49 64/114/49 63/112/49 65/115/49
f 68/120/50 66/117/50 65/115/50 67/118/50
f 70/123/51 68/120/51 67/118/51 69/121/51
f 72/126/52 70/123/52 69/121/52 71/124/52
f 74/129/53 72/126/53 71/124/53 73/127/53
f 76/132/54 74/129/54 73/127/54 75/130/54
f 78/135/55 76/132/55 75/130/55 77/133/55
f 80/138/56 78/135/56 77/133/56 79/136/56
f 82/141/57 80/138/57 79/136/57 81/139/57
f 84/144/58 82/141/58 81/139/58 83/142/58
f 86/147/59 84/144/59 83/142/59 85/145/59
f 88/150/60 86/147/60 85/145/60 87/148/60
f 90/153/61 88/150/61 87/148/61 89/151/61
f 92/156/62 90/153/62 89/151/62 91/154/62
f 94/159/63 92/156/63 91/154/63 93/157/63
f 96/162/64 94/159/64 93/157/64 95/160/64
f 34/69/65 96/162/65 95/160/65 33/66/65
f 35/70/66 33/66/66 95/160/66 93/157/66 91/154/66 89/151/66 87/148/66 85/145/66 83/142/66 81/139/66 79/136/66 77/133/66 75/130/66 73/127/66 71/124/66 69/121/66 67/118/66 65/115/66 63/112/66 61/109/66 59/106/66 57/103/66 55/100/66 53/97/66 51/94/66 49/91/66 47/88/66 45/85/66 43/82/66 41/79/66 39/76/66 37/73/66
